<svg xmlns="http://www.w3.org/2000/svg" aria-hidden="true" overflow="hidden" style="position:absolute;width:0;height:0">
  <defs>
    <symbol id="icon-people" viewBox="0 0 32 32">
      <path fill="#888282" style="fill: var(--color1, #888282)" d="M27.38 17.082h-2.474c0.252 0.691 0.39 1.436 0.39 2.213v9.353c0 0.324-0.056 0.635-0.159 0.924h4.091c1.53-0.002 2.77-1.241 2.772-2.771v-5.1c-0.003-2.55-2.070-4.616-4.62-4.619h-0zM6.704 19.295c0-0.777 0.138-1.522 0.39-2.212h-2.474c-2.55 0.003-4.617 2.069-4.62 4.619v5.099c0.002 1.53 1.242 2.77 2.772 2.772h4.091c-0.101-0.275-0.159-0.592-0.159-0.923 0-0.001 0-0.001 0-0.002v0-9.353zM18.829 14.676h-5.659c-2.55 0.003-4.617 2.070-4.62 4.62v9.353c0 0.51 0.414 0.923 0.925 0.923h13.048c0.51 0 0.924-0.413 0.924-0.923v-9.354c-0.003-2.55-2.070-4.616-4.62-4.619h-0zM16 2.427c-3.067 0.004-5.552 2.489-5.555 5.556v0c0.003 3.067 2.488 5.552 5.555 5.555h0c3.067-0.003 5.552-2.488 5.555-5.555v-0c-0.003-3.067-2.488-5.552-5.555-5.556h-0zM6.245 7.606c-2.293 0.003-4.152 1.861-4.155 4.154v0c0.003 2.294 1.861 4.152 4.155 4.155h0c0.001 0 0.002 0 0.003 0 0.591 0 1.152-0.124 1.661-0.347l-0.027 0.010c0.876-0.384 1.578-1.033 2.019-1.844l0.011-0.022c0.307-0.564 0.488-1.234 0.488-1.947 0-0.002 0-0.003 0-0.005v0c-0.003-2.293-1.862-4.151-4.155-4.154h-0zM25.755 7.606c-2.293 0.003-4.151 1.861-4.154 4.154v0c0 0.705 0.177 1.37 0.488 1.952 0.452 0.833 1.153 1.481 2.002 1.855l0.027 0.011c0.482 0.213 1.043 0.337 1.634 0.337 0.001 0 0.002 0 0.003 0h-0c2.294-0.003 4.152-1.861 4.155-4.155v-0c-0.003-2.293-1.862-4.151-4.155-4.154h-0z"></path>
    </symbol>
    <symbol id="icon-research" viewBox="0 0 26 32">
      <path fill="#888282" style="fill: var(--color1, #888282)" d="M24 32c-0 0-0 0-0 0-0.316 0-0.601-0.128-0.808-0.335l-1.68-1.68c-0.768 0.488-1.703 0.777-2.706 0.777-2.816 0-5.099-2.283-5.099-5.099s2.283-5.099 5.099-5.099c2.816 0 5.099 2.283 5.099 5.099 0 1.003-0.29 1.938-0.79 2.727l0.012-0.021 1.68 1.68c0.207 0.207 0.335 0.493 0.335 0.808 0 0.631-0.512 1.143-1.143 1.143-0 0-0 0-0 0v0zM18.81 22.857c-0.015-0-0.033-0-0.051-0-1.552 0-2.811 1.258-2.811 2.811s1.258 2.811 2.811 2.811c0.018 0 0.036-0 0.053-0l-0.003 0c1.53-0.028 2.76-1.276 2.76-2.81s-1.23-2.782-2.757-2.81l-0.003-0z"></path>
      <path fill="#888282" style="fill: var(--color1, #888282)" d="M20.571 9.143c-2.525 0-4.571-2.047-4.571-4.571v0-4.571h-10.286c-3.156 0-5.714 2.558-5.714 5.714v0 20.571c0 3.156 2.558 5.714 5.714 5.714v0h9.325c-2.177-1.308-3.611-3.657-3.611-6.341 0-4.072 3.301-7.374 7.374-7.374 2.684 0 5.033 1.434 6.323 3.577l0.019 0.033v-12.752h-4.571zM5.714 6.857h6.857c0.631 0 1.143 0.512 1.143 1.143s-0.512 1.143-1.143 1.143v0h-6.857c-0.631 0-1.143-0.512-1.143-1.143s0.512-1.143 1.143-1.143v0zM9.143 18.286h-3.429c-0.631 0-1.143-0.512-1.143-1.143s0.512-1.143 1.143-1.143v0h3.429c0.631 0 1.143 0.512 1.143 1.143s-0.512 1.143-1.143 1.143v0zM17.143 13.714h-11.429c-0.631 0-1.143-0.512-1.143-1.143s0.512-1.143 1.143-1.143v0h11.429c0.631 0 1.143 0.512 1.143 1.143s-0.512 1.143-1.143 1.143v0z"></path>
      <path fill="#888282" style="fill: var(--color1, #888282)" d="M24.993 6.857c-0.165-0.58-0.461-1.077-0.855-1.478l0 0-4.375-4.375c-0.4-0.394-0.898-0.69-1.453-0.849l-0.024-0.006v4.421c0 1.262 1.023 2.286 2.286 2.286v0h4.422z"></path>
    </symbol>
    <symbol id="icon-arrow" viewBox="0 0 32 32">
      <path fill="#fff" style="fill: var(--color1, #fff)" d="M25.15 8.568l-21.602 21.602-3.548-3.548 21.6-21.602h-19.040v-5.020h27.608v27.608h-5.020v-19.040z"></path>
    </symbol>
    <symbol id="icon-video" viewBox="0 0 32 32">
      <path fill="#fff" style="fill: var(--color1, #fff)" d="M27.314 4.686c-3.021-3.022-7.040-4.686-11.314-4.686s-8.291 1.665-11.313 4.686c-3.022 3.022-4.686 7.040-4.686 11.314s1.665 8.291 4.686 11.313c3.021 3.022 7.040 4.686 11.313 4.686s8.291-1.665 11.313-4.686c3.022-3.021 4.686-7.040 4.686-11.313s-1.665-8.291-4.686-11.313zM16 30.020c-7.731 0-14.021-6.289-14.021-14.020s6.29-14.021 14.021-14.021 14.020 6.29 14.020 14.021-6.29 14.020-14.021 14.020z"></path>
      <path fill="#fff" style="fill: var(--color1, #fff)" d="M11.947 22.207l10.746-6.207-10.746-6.207v12.414z"></path>
    </symbol>
    <symbol id="icon-check" viewBox="0 0 32 32">
      <path fill="#10ef1f" style="fill: var(--color1, #10ef1f)" d="M31.222 14.114l-2.182-2.181c-0.518-0.518-0.942-1.542-0.942-2.277v-3.085c0-1.469-1.2-2.667-2.667-2.669h-3.088c-0.733 0-1.757-0.426-2.275-0.944l-2.182-2.179c-0.483-0.48-1.15-0.777-1.886-0.777s-1.402 0.297-1.886 0.778l-2.181 2.182c-0.52 0.518-1.546 0.942-2.277 0.942h-3.086c-1.466 0-2.667 1.2-2.667 2.667v3.085c0 0.731-0.424 1.76-0.942 2.277l-2.182 2.179c-0.481 0.484-0.779 1.151-0.779 1.887s0.298 1.404 0.779 1.887l2.182 2.181c0.518 0.518 0.944 1.546 0.944 2.277v3.085c0 1.467 1.2 2.667 2.666 2.667h3.086c0.733 0 1.758 0.426 2.277 0.944l2.181 2.182c0.484 0.48 1.15 0.777 1.886 0.777s1.402-0.297 1.886-0.777l2.182-2.184c0.518-0.517 1.544-0.942 2.277-0.942h3.088c1.466 0 2.666-1.2 2.666-2.667v-3.085c0-0.736 0.424-1.76 0.944-2.277l2.181-2.181c0.481-0.484 0.778-1.151 0.778-1.887s-0.297-1.403-0.778-1.887l0 0zM13.883 22.002l-5.883-5.886 1.885-1.886 4 4 8.227-8.229 1.888 1.885-10.117 10.115z"></path>
    </symbol>
    </defs>
</svg>
